<?xml version="1.0" encoding="utf-8"?>
<!-- Generator: Adobe Illustrator 24.1.1, SVG Export Plug-In . SVG Version: 6.00 Build 0)  -->
<svg version="1.1" id="Layer_1" xmlns="http://www.w3.org/2000/svg" xmlns:xlink="http://www.w3.org/1999/xlink" x="0px" y="0px"
	 viewBox="0 0 1000 1000" style="enable-background:new 0 0 1000 1000;" xml:space="preserve">
<style type="text/css">
	.st0{fill:none;}
	.st1{fill:#0378A6;}
	.st2{font-family:'Tahoma-Bold';}
	.st3{font-size:89.2268px;}
	.st4{font-family:'Tahoma';}
	.st5{font-size:44.6134px;}
	.st6{letter-spacing:3.09;}
</style>
<rect x="379.23" y="450.81" class="st0" width="867.48" height="207.84"/>
<text transform="matrix(0.9701 0 0 1 379.2319 518.6255)" class="st1 st2 st3">DORA IHSAN</text>
<rect x="382.57" y="535.07" class="st0" width="636.91" height="42.94"/>
<text transform="matrix(0.9701 0 0 1 382.5698 568.9785)" class="st1 st4 st5 st6">MEDICAL COORDINATION</text>
<g>
	<path class="st1" d="M367.92,448.21v129.26c0,6.41-5.04,11.6-11.25,11.6h-49.89c-6.22,0-11.25,5.2-11.25,11.6v53.29
		c0,6.41-5.04,11.61-11.26,11.61h-125.4c-6.21,0-11.25-5.2-11.25-11.61v-40.07c0-0.82,0.05-1.65,0.12-2.49
		c0-2.5-0.06-5.79-0.29-9.73c-0.53-9.35,16.16-26.9,17.54-30.41c1.39-3.51,2.87-0.77,5.16,1.6c1.26,1.31,4.99,4.74,7,6.58
		c0.53,0.49,0.94,0.87,1.16,1.07c0.11,0.1,0.19,0.17,0.19,0.17l0.46,0.45l4.12,4.07l0.17,0.16c1.74,1.7,16.35,15.68,8.97-2.62
		c-0.01-0.02-1.17-2.8-2.29-4.63l-0.97-1.59l-1.67-2.71l-0.65-1.06c-0.23-0.36-0.19-0.8,0.06-1.01l0.41-0.35l0.02-0.01l0.09-0.06
		c0.98-0.65,8.02-5.32,9.91-8.14c0.2-0.39,0.37-1.2-0.05-2.76l-0.25-0.67c-0.42-0.88-0.99-1.93-1.67-3.09
		c-0.17-0.29-0.35-0.6-0.53-0.91c-0.05-0.07-0.08-0.14-0.11-0.19c-2.86-4.82-7.25-12.26-10.62-17.98c0,0-0.06-0.09-0.16-0.26
		c-0.22-0.33-0.6-0.95-0.92-1.56c-0.81-1.51-1.29-2.94,2.09,0.46c0.1,0.1,0.21,0.21,0.31,0.32c0.21,0.22,0.41,0.41,0.59,0.6
		l17.51,17.87l0.17,0.18l1.03,1.05l1.8,1.83l25.5,26.03c0,0,0.01,0.02,0.03,0.04c0.59,0.55,7.61,6.93,2.28-1.94
		c-0.01-0.01-0.01-0.02-0.02-0.04l-18.95-28.36c0,0-0.1-0.1-0.21-0.31c-0.35-0.64-0.81-2.25,1.56-4.41
		c8.73-7.89,16.56-15.48,23.57-22.69l7.07-7.42c1.85-1.99,3.62-3.94,5.34-5.86l0.07-0.08c6.95-7.77,12.83-14.95,17.77-21.41
		l3.37-4.06l-3.37,21.65c-0.11,0.69,0.27,0.36,0.37,0.26l2.53-2.53l0.18-0.19c0.17-0.23,0.44-0.77,0.74-1.98l6.28-25.66L290,467.1
		c0,0,0.69-1.03,1.06-1.74c1.59-3.03,5.17-10.38,2.04-9.71c-4.39,2.11-7.88,5.25-9.45,6.8c-0.01,0.01-0.03,0.03-0.06,0.05
		c-0.21,0.21-0.38,0.39-0.52,0.53c-0.45,0.55-0.94,1.3-0.94,1.3l-3.55,5.54c-0.01,0-0.01,0-0.01,0c-0.41,0.65-0.74,0.94-0.99,1.06
		l-21.28-0.3c-1.02-0.02-1.54,0.21-1.79,0.4l-0.22,0.23l-3.09,3.18c-0.11,0.13-0.55,0.63,0,0.75l21.19,4.31l-10.51,16.37
		c-0.41,0.5-0.96,1.34-1.69,2.64l-2.17,3.39c0,0-0.31,0.41-0.71,0.85c-0.39,0.44-0.87,0.91-1.2,1.02l-0.13,0.01
		c-0.02,0-0.05,0.01-0.07,0l-2.16,0.13l-4.21,0.33c-1.15,0.09-1.76,0.9-1.76,0.9l-1.09,1.42c-0.09,0.12-0.65,0.9-0.04,1.17
		l5.69,2.45c0.17,0.08,0.09,0.25,0.03,0.33c-2.28,3.18-4.07,5.47-4.26,5.73c-3.81,4.32-7.43,8.21-10.79,11.68l-0.11,0.1
		c-0.02,0.02-0.04,0.05-0.06,0.07l-0.32,0.32c-10.45,10.7-18.47,17.27-22.33,20.23c0,0.01,0,0.01-0.01,0.01
		c-1.85,1.47-1.94,2.92-1.76,3.78c0.14,0.49,0.37,0.9,0.51,1.13l14.73,22.04c0.56,0.85-0.32,1.62-1.03,0.9l-19.22-19.63l-1.79-1.83
		L205,554.1l-0.27-0.28l-20.99-21.44c-4.94-4.64-6.35-4.7-6.35-3.26c0,1.9,2.47,6.45,2.47,6.45l13.91,23.55l0.17,0.29
		c0.03,0.04,0.07,0.1,0.1,0.16c0.04,0.07,0.08,0.15,0.13,0.22c1.02,2.02-0.28,3.54-1.05,4.21c-0.02,0.01-0.03,0.02-0.04,0.03
		c-0.15,0.13-0.27,0.22-0.34,0.27l-0.12,0.09c-3.72,2.75-5.82,3.64-6.53,3.89c-0.1,0.04-0.19,0.06-0.28,0.09
		c-2.65,0.77-3.06,2.39-2.72,3.93c0.06,0.27,0.3,0.74,0.3,0.74l1.47,2.47l0.09,0.16l0.07,0.1l0.07,0.13l4.46,7.49
		c0.51,0.83-0.34,1.56-1.04,0.87l-6.45-6.34l-1.23-1.22l-1.23-1.22l-3.42-3.36l-8.23-8.11c-1.23-0.94-2.24-1.31-3.06-1.31
		c-2.13,0-3.04,2.43-3.39,3.81c-0.02,0.15-0.04,0.31-0.05,0.45c-0.02,0.14-0.04,0.28-0.06,0.42c-0.08,0.59-0.19,1.16-0.34,1.72v0.03
		c-4.27,17.13-33.39,19.63-45.27,19.94H82.85c-6.22,0-11.26-5.19-11.26-11.6V448.21c0-6.41,5.04-11.59,11.26-11.59h53.52
		c6.21,0,11.25-5.2,11.25-11.61v-53.29c0-6.41,5.04-11.61,11.25-11.61h125.4c6.22,0,11.26,5.2,11.26,11.61v53.29
		c0,4.06,2.02,7.64,5.09,9.71c1.77,1.2,3.88,1.9,6.16,1.9h49.89C362.88,436.62,367.92,441.8,367.92,448.21z"/>
</g>
</svg>
